<?xml version="1.0" encoding="utf-8" ?>
<svg xmlns="http://www.w3.org/2000/svg" xmlns:xlink="http://www.w3.org/1999/xlink" width="979" height="979">
	<path fill="rgba(255,255,255,0)" transform="scale(0.956062 0.956062)" d="M42.012 18.9033L982.055 18.958L981.968 580.116C982.011 587.31 982.208 594.544 981.974 601.733C982.068 609.744 982.057 617.743 981.959 625.754C982.548 643.513 982.191 661.512 981.995 679.288C981.959 682.497 980.503 693.186 981.346 695.508C983.266 704.575 982.066 726.545 982.051 737.06L982.059 817.436C982.062 830.991 981.368 844.96 982.134 858.478C982.092 866.348 983.359 875.441 982.047 883.143L982.001 883.451C982.766 911.35 982.353 939.315 982.346 967.226L982.39 992.3C982.401 996.423 982.778 1000.95 982.27 1005.02L42.0118 1005.02C41.4086 963.82 41.9629 922.52 41.9618 881.309L41.9584 638.57L42.012 18.9033Z"/>
	<path fill="#030202" transform="scale(0.956062 0.956062)" d="M540.074 190.947C535.923 192.375 531.813 193.79 528.041 196.079C525.967 197.337 523.645 199.907 521.327 200.426C521.047 200.231 520.725 200.085 520.487 199.841C519.617 198.952 519.201 197.68 519.363 196.455C519.711 193.829 522.737 191.176 524.663 189.536C532.988 182.446 545.794 178.777 555.49 173.557C562.199 169.946 568.714 165.284 575.233 161.28C598.239 147.149 622.568 136.303 650.288 138.674C668.983 140.274 684.156 147.413 696.214 161.781C694.584 157.956 689.521 153.294 689.335 149.428L690.113 148.797C692.519 148.796 694.346 150.206 696.173 151.636C704.568 158.207 706.629 167.158 707.934 177.208C720.764 174.869 732.788 178.647 743.519 185.75C754.921 193.296 763.88 205.341 766.478 218.908C768.169 227.742 766.97 236.785 761.892 244.322L762.488 245.757C768.406 260.07 771.652 275.989 765.022 290.802C763.898 293.313 761.632 297.376 758.978 298.311L758.086 297.79C758.189 293.449 758.535 288.941 757.804 284.648C757.769 284.441 757.726 284.236 757.687 284.03C755.447 301.963 745.867 325.485 738.312 342.165C732.79 354.354 722.73 367.112 722.356 380.862C721.875 398.548 731.391 428.779 743.867 441.785C755.96 441.056 768.141 439.178 780.199 437.886L840.743 431.9C855.643 430.529 870.662 429.034 885.619 428.527C901.701 427.982 922.746 430.306 934.509 442.691C937.535 445.878 939.573 449.929 941.088 454.021C944.62 463.564 946.426 473.939 948.83 483.824L962.138 538.694C964.253 547.441 965.8 557.67 969.949 565.701C972.821 571.261 977.449 575.886 981.968 580.116C982.011 587.31 982.208 594.544 981.974 601.733C982.068 609.744 982.057 617.743 981.959 625.754C982.548 643.513 982.191 661.512 981.995 679.288C981.959 682.497 980.503 693.186 981.346 695.508C983.266 704.575 982.066 726.545 982.051 737.06L982.059 817.436C982.062 830.991 981.368 844.96 982.134 858.478C982.092 866.348 983.359 875.441 982.047 883.143L982.001 883.451C982.766 911.35 982.353 939.315 982.346 967.226L982.39 992.3C982.401 996.423 982.778 1000.95 982.27 1005.02C980.989 996.166 982.025 979.878 982.03 970.268L981.994 893.634C965.61 894.129 949.137 893.804 932.744 893.819L832.775 893.694L567.102 893.694L255.748 893.793L169.543 893.775C154.535 893.801 139.461 894.205 124.459 893.91C121.131 893.845 117.688 893.559 114.649 892.118C112.959 889.766 112.558 887.139 112.467 884.282C112.299 879.068 111.346 864.043 114.705 860.676C116.077 859.302 117.975 858.897 119.837 858.65C124.802 857.99 130.29 858.464 135.308 858.513C143.392 858.591 151.47 858.568 159.554 858.493C159.486 854.557 158.77 849.894 161.793 846.801C165.374 843.136 176.068 844.632 180.86 844.55C183.721 837.808 185.994 830.689 188.594 823.831L204.811 781.413C197.232 782.178 168.523 785.216 163.22 781.102C161.885 780.066 161.87 779.627 161.501 778.051C159.095 767.798 158.924 756.49 157.947 746.005L152.586 691.438L131.47 472.667C130.736 464.911 127.718 443.076 128.536 436.241C128.774 434.254 129.518 432.368 130.845 430.858C132.198 429.317 135.168 428.97 137.122 428.537C145.482 426.688 154.111 425.616 162.558 424.159L216.747 415.019L335.206 394.524L430.666 377.939L458.22 373.005C463.891 371.959 469.86 370.438 475.61 370.133C481.429 369.824 493.997 371.74 498.281 375.853C499.922 377.428 500.241 380.694 500.579 382.898C502.162 393.196 502.746 403.87 503.696 414.256L508.6 468.246L514.416 535.718C515.59 549.625 517.049 563.595 517.606 577.542C519.724 573.153 520.762 568.167 522.35 563.559C525.117 555.528 529.171 546.927 534.988 540.641C549.14 525.348 580.467 508.26 598.82 496.753C609.948 489.776 620.85 481.755 632.659 475.995C630.986 471.719 623.323 454.122 619.466 452.257C613.295 449.272 592.779 461.296 580.737 453.275C568.242 444.954 544.176 393.293 540.74 377.43C533.337 377.34 526.739 375.102 521.087 370.232C512.788 363.08 507.877 352.101 507.124 341.264C506.277 329.074 510.286 322.697 518.002 313.725C506.423 297.469 504.542 282 506.559 262.641C501.427 275.671 498.66 290.353 507.456 302.686C509.329 305.312 512.811 307.632 513.606 310.772L513.076 311.381C511.318 311.134 509.699 310.275 508.2 309.352C500.929 304.875 496.105 297.655 494.199 289.396C489.4 268.596 500.416 249.477 511.093 232.667C506.229 236.483 500.97 240.402 497.865 245.889C496.19 248.849 495.341 254.685 493.011 256.882L491.935 256.517C490.64 255.065 490.223 253.675 490.016 251.745C488.925 241.55 498.194 230.107 506.194 224.657C508.989 222.754 512.69 221.654 515.064 219.241C523.74 210.422 532.269 200.53 540.074 190.947Z"/>
	<path fill="#FDFDFC" transform="scale(0.956062 0.956062)" d="M526.743 828.038C526.743 828.243 526.794 828.454 526.741 828.652C525.972 831.559 520.259 841.038 518.033 843.026C517.755 842.172 517.698 841.479 517.808 840.595C518.429 835.608 522.879 830.94 526.743 828.038Z"/>
	<path fill="#FDFDFC" transform="scale(0.956062 0.956062)" d="M532.465 317.788C536.914 319.375 541.512 323.106 544.767 326.483C541.961 326.564 539.138 326.521 536.33 326.535C535.078 323.604 533.768 320.698 532.465 317.788Z"/>
	<path fill="#FDFDFC" transform="scale(0.956062 0.956062)" d="M520.916 319.832C523.552 321.651 525.642 328.585 526.918 331.672L519.117 333.557C517.38 333.862 515.607 334.449 513.893 334.891C515.14 328.91 517.419 324.749 520.916 319.832Z"/>
	<path fill="#FDFDFC" transform="scale(0.956062 0.956062)" d="M734.521 192.272C739.145 193.23 744.792 198.676 747.812 202.172C754.301 209.683 758.591 219.093 757.892 229.13C754.253 213.528 744.884 203.862 734.521 192.272Z"/>
	<path fill="#FDFDFC" transform="scale(0.956062 0.956062)" d="M541.246 331.608C545.357 332.86 543.866 342.441 546.458 346.795C547.413 348.399 548.596 349.318 550.442 349.734C551.726 350.024 551.198 349.659 551.959 350.54C552.047 355.052 549.972 359.635 548.484 363.848L548.174 364.602C547.718 363.955 540.635 334.489 540.33 332.657L541.246 331.608Z"/>
	<path fill="#FDFDFC" transform="scale(0.956062 0.956062)" d="M355.841 827.802C356.352 827.735 356.864 827.668 357.377 827.618C358.576 827.503 359.161 827.249 360.165 828.057C359.873 830.72 356.479 834.044 354.833 836.21C349.45 832.985 344.804 832.094 338.624 831.754C336.723 831.699 334.382 831.868 332.552 831.394C332.085 831.273 331.64 831.189 331.403 830.748C336.188 828.489 350.206 828.279 355.841 827.802Z"/>
	<path fill="#FDFDFC" transform="scale(0.956062 0.956062)" d="M557.816 833.85C564.911 836.606 571.726 839.377 578.271 843.326L569.125 843.071C561.91 842.973 554.698 842.516 547.474 842.423C550.881 839.517 554.352 836.688 557.816 833.85Z"/>
	<path fill="#FDFDFC" transform="scale(0.956062 0.956062)" d="M365.682 853.179C372.128 852.947 378.585 853.013 385.035 853.012C385.008 855.652 384.84 858.29 384.707 860.926C378.422 861.218 372.151 861.123 365.863 861.048L365.682 853.179Z"/>
	<path fill="#FDFDFC" transform="scale(0.956062 0.956062)" d="M489.667 779.956C495.941 780.069 501.578 782.936 507.182 785.442C502.546 786.156 500.175 787.37 496.411 790.17C494.846 791.334 494.24 791.625 492.247 791.738C486.335 790.467 480.494 789.734 474.472 790.418C479.114 786.46 484.33 782.9 489.667 779.956Z"/>
	<path fill="#FDFDFC" transform="scale(0.956062 0.956062)" d="M633.347 148.182C636.458 147.784 639.862 147.803 643.007 147.773C661.072 147.602 676.857 153.731 689.779 166.352C686.293 164.535 682.796 162.751 679.273 161.008C659.276 151.531 638.799 149.753 617.044 151.954C622.434 150.124 627.695 148.876 633.347 148.182Z"/>
	<path fill="#FDFDFC" transform="scale(0.956062 0.956062)" d="M313.041 807.264L313.257 807.406C312.52 809.634 308.296 812.893 306.542 814.667C302.141 819.118 298.099 824.013 294.576 829.188C292.018 832.946 290.172 839.686 286.927 842.562C285.54 843.79 283.907 843.392 282.174 843.396L281.676 842.742C282.356 837.535 297.281 815.787 301.441 811.294C305.27 807.16 307.694 807.451 313.041 807.264Z"/>
	<path fill="#FDFDFC" transform="scale(0.956062 0.956062)" d="M799.534 832.61L801.007 832.689C800.479 834.006 790.654 840.124 788.538 842.111C783.248 847.075 779.475 852.855 775.551 858.889C773.242 858.954 770.928 858.768 768.622 858.64C767.868 858.584 767.35 858.466 766.634 858.254C766.495 856.49 767.621 854.854 768.542 853.429C775.887 842.063 786.463 835.378 799.534 832.61Z"/>
	<path fill="#FDFDFC" transform="scale(0.956062 0.956062)" d="M632.452 297.354C638.676 298.218 644.738 302.362 651.036 303.634C654.983 304.431 664.287 303.974 667.153 306.536L666.946 307.251C655.572 311.636 643.205 314.115 631.311 316.597C630.451 316.828 629.269 317.36 628.4 317.132C625.004 316.242 615.445 308.847 611.028 306.585C613.376 307.26 615.733 307.837 618.13 308.31C627.745 310.206 638.626 310.516 647.055 304.848C641.583 302.27 637.159 301.651 632.452 297.354Z"/>
	<path fill="#FDFDFC" transform="scale(0.956062 0.956062)" d="M328.754 691.846C329.73 695.564 329.645 700.269 330.012 704.126C330.907 713.557 331.918 722.986 332.631 732.433L317.75 733.057C316.374 733.125 314.767 733.439 313.525 732.748C314.218 728.82 316.403 724.394 317.816 720.605L328.754 691.846Z"/>
	<path fill="#FDFDFC" transform="scale(0.956062 0.956062)" d="M228.323 718.474L228.592 718.725C228.999 721.113 210.768 766.362 208.683 771.452C203.109 771.812 197.513 771.959 191.932 772.181L191.652 771.81C194.968 766.481 199.062 761.554 202.648 756.384C211.342 743.849 219.954 731.229 228.323 718.474Z"/>
	<path fill="#FDFDFC" transform="scale(0.956062 0.956062)" d="M531.335 337.015L532.286 337.325C534.016 341.757 534.449 347.252 535.376 351.979C536.566 358.041 537.994 364.062 539.397 370.078C534.642 369.65 531.538 368.91 527.515 366.232C519.744 359.621 516.526 351.796 514.41 342.025C519.868 340.021 525.765 338.748 531.335 337.015Z"/>
	<path fill="#FDFDFC" transform="scale(0.956062 0.956062)" d="M513.359 795.237L518.328 795.036C512.066 800.976 505.261 806.566 499.397 812.895C490.987 821.971 484.788 835.762 473.656 841.588C472.393 841.41 470.944 840.974 470.04 839.988C469.139 839.005 468.975 838.345 469.138 837.031C470.014 829.969 497.118 800.057 503.965 795.549L513.359 795.237Z"/>
	<path fill="#FDFDFC" transform="scale(0.956062 0.956062)" d="M532.091 274.132C539.834 292.135 541.538 299.54 558.272 311.354C562.565 313.331 567.064 314.78 571.555 316.236C569.963 321.277 568.7 326.206 567.858 331.424C563.684 331.441 559.696 331.507 555.578 332.245C551.957 323.641 545.576 315.997 536.793 312.39C534.137 311.3 531.307 310.6 528.453 310.286C527.644 303.403 527.96 296.273 528.009 289.347L528.535 290.153C530.043 292.509 531.076 295.156 532.481 297.578C536.636 304.735 542.688 310.701 550.974 312.663C553.103 313.167 555.346 313.569 557.535 313.447L558.191 312.822L557.868 312.03C554.551 310.347 551.292 308.664 548.352 306.361C538.191 298.401 533.635 286.571 532.091 274.132Z"/>
	<path fill="#FDFDFC" transform="scale(0.956062 0.956062)" d="M917.741 443.266C920.994 444.629 924.373 446.679 926.882 449.171C930.038 452.307 931.236 456.082 932.559 460.213C935.104 468.161 936.817 476.48 938.781 484.589L948.829 526.13L954.456 549.066C956.159 555.759 959.006 563.194 958.93 570.093C958.53 570.081 958.06 570.09 957.669 569.986C954.17 569.058 950.798 563.295 949.516 560.201C946.196 552.19 944.639 542.911 942.596 534.495L931.753 489.499C927.989 473.77 924.862 457.89 917.741 443.266Z"/>
	<path fill="#FDFDFC" transform="scale(0.956062 0.956062)" d="M821.413 836.7C824.398 836.346 827.767 836.92 830.659 837.729C841.454 840.75 850.559 848.922 855.997 858.531C844.771 858.76 833.533 858.638 822.305 858.616L786.822 858.713C787.821 857.128 788.941 855.655 790.111 854.193C798.191 844.102 808.592 838.129 821.413 836.7Z"/>
	<path fill="#FDFDFC" transform="scale(0.956062 0.956062)" d="M435.622 851.733C452.416 851.247 469.22 851.809 486.015 851.958C517.564 852.236 549.084 852.655 580.621 853.554L580.461 860.519L539.934 860.306C491.754 859.816 443.572 860.666 395.405 860.286L395.501 852.18C408.864 852.351 422.262 852.026 435.622 851.733Z"/>
	<path fill="#FDFDFC" transform="scale(0.956062 0.956062)" d="M578.369 318.6C586.063 320.706 593.511 321.223 601.466 321.116C598.833 322.32 596.618 323.235 594.852 325.616L595.32 326.187C597.32 326.096 598.893 325.358 600.72 324.587C601.938 327.965 603.239 331.724 605.335 334.66C606.76 336.656 608.724 338.791 611.34 338.98C612.654 339.075 613.761 338.53 614.764 337.736C619.046 334.347 619.059 326.733 619.509 321.74C624.511 328.242 625.158 334.243 624.964 342.121C624.66 344.096 624.35 346.059 623.726 347.964C621.893 353.561 618.26 358.528 612.879 361.133C607.457 363.757 601.06 363.636 595.465 361.63C587.715 358.852 581.768 352.773 578.423 345.333C574.327 336.225 574.849 327.745 578.369 318.6Z"/>
	<path fill="#FDFDFC" transform="scale(0.956062 0.956062)" d="M791.753 773.477C791.886 773.453 792.018 773.423 792.152 773.407C803.009 772.107 827.266 784.876 835.857 791.172C858.092 807.467 869.481 831.673 873.545 858.464L866.556 858.66C865.435 856.216 864.133 853.848 862.891 851.463C855.425 839.814 845.992 832.393 833.056 827.577C825.665 813.211 814.68 795.103 799.791 787.447C791.232 783.046 783.952 784.391 775.266 787.259C780.015 781.75 785.636 777.369 791.753 773.477Z"/>
	<path fill="#FDFDFC" transform="scale(0.956062 0.956062)" d="M953.259 858.633C956.434 842.967 979.154 699.112 981.346 695.508C983.266 704.575 982.066 726.545 982.051 737.06L982.059 817.436C982.062 830.991 981.368 844.96 982.134 858.478L953.259 858.633Z"/>
	<path fill="#FDFDFC" transform="scale(0.956062 0.956062)" d="M956.681 583.937C957.084 584.327 957.222 584.438 957.605 584.941C960.422 588.639 962.908 593.659 963.031 598.348C963.327 609.697 956.623 635.731 954.104 647.955L932.385 753.946C929.164 769.89 924.59 786.145 922.723 802.299L920.795 796.37C919.828 793.662 919.024 790.872 918.16 788.129C921.051 779.332 926.531 770.583 927.58 761.302C928.859 749.989 916.026 728.048 917.755 715.812C918.381 711.384 920.427 706.945 921.877 702.718C924.194 695.969 926.426 689.175 928.418 682.322L945.669 623.195C949.354 610.131 952.533 596.861 956.681 583.937Z"/>
	<path fill="#FDFDFC" transform="scale(0.956062 0.956062)" d="M324.064 657.76C325.151 660.216 325.567 663.11 325.882 665.765C326.32 669.461 325.867 672.733 324.757 676.264C322.132 684.623 318.452 692.876 315.295 701.063C309.774 715.379 304.4 729.73 298.719 743.986C287.247 772.777 276.291 801.703 264.315 830.303C262.45 834.758 260.272 843.327 257.468 846.806C255.922 847.394 255.027 847.895 253.775 848.975C253.372 850.619 253.284 851.698 253.442 853.382C258.793 854.756 279.279 853.612 286.125 853.532C309.371 853.261 332.722 852.911 355.964 853.154L356.028 861.016C328.587 861.378 301.096 861.047 273.65 861.074C239.002 861.075 204.317 861.479 169.673 861.056C169.594 858.943 169.623 856.817 169.604 854.702C188.467 853.994 207.591 854.693 226.478 854.722C235.228 854.736 244.3 855.16 253 854.129L252.652 851.468C252.399 849.555 251.835 848.794 250.581 847.346C250.469 847.216 250.353 847.09 250.239 846.963C252.742 837.691 257.009 828.176 260.531 819.239L278.67 773.063L307.655 698.596C312.964 685.029 317.739 670.872 324.064 657.76Z"/>
	<path fill="#FDFDFC" transform="scale(0.956062 0.956062)" d="M482.586 800.527L483.135 800.836C482.911 802.332 467.33 822.224 464.865 825.944C461.702 830.716 458.778 835.532 456.964 840.984C439.26 840.859 421.582 842.207 403.862 841.997C405.084 840.661 406.587 839.071 406.61 837.134C406.629 835.543 405.592 834.129 404.445 833.131C395.924 825.713 374.69 839.763 366.049 842.673C363.879 843.403 361.577 843.503 359.309 843.637C363.668 838.958 374.295 826.428 375.923 820.597C376.342 819.097 376.267 818.085 375.467 816.71C374.104 815.666 372.874 815.502 371.21 815.534C366.336 815.628 361.248 817.22 356.397 817.903C347.502 819.156 338.516 819.851 329.591 820.886C327.106 822.846 324.985 825.232 322.802 827.514C318.397 832.119 313.73 836.721 308.394 840.238C305.61 842.072 303.051 843.787 299.598 843.063C299.058 842.525 298.592 842.327 298.53 841.515C298.03 835.031 321.547 812.068 326.225 806.125C333.03 804.87 358.246 801.694 364.176 802.373C369.561 802.991 374.76 805.275 379.806 807.131C391.794 811.542 412.959 820.455 425.415 819.22C444.969 817.283 463.523 806.608 481.974 800.717L482.586 800.527Z"/>
	<path fill="#FDFDFC" transform="scale(0.956062 0.956062)" d="M479.977 380.429C483.736 381.192 487.315 382.149 490.957 383.35C492.305 393.901 492.769 404.739 493.738 415.346L499.941 483.789L515.243 663.015L520.697 722.942C521.593 732.434 523.044 742.188 523.437 751.695C523.493 753.046 523.505 753.417 522.885 754.61C519.431 755.057 515.91 755.247 512.437 755.544C509.716 732.804 508.376 709.692 506.414 686.858L495.589 560.906L486.053 450.536C483.959 427.219 481.41 403.787 479.977 380.429Z"/>
	<path fill="#FDFDFC" transform="scale(0.956062 0.956062)" d="M880.484 438.713C883.71 438.442 887.003 438.582 890.24 438.61C886.581 442.136 883.429 445.787 881.311 450.46C874.831 464.761 872.321 500.122 870.632 516.877C855.533 502.671 830.013 488.789 811.79 477.795C794.904 467.439 779.821 458.06 761.688 449.854C779.815 447.505 798.12 446.055 816.318 444.325C837.688 442.294 859.06 440.077 880.484 438.713Z"/>
	<path fill="#FDFDFC" transform="scale(0.956062 0.956062)" d="M967.561 580.863C968.012 581.127 968.455 581.404 968.892 581.69C975.986 586.323 980.238 593.559 981.974 601.733C982.068 609.744 982.057 617.743 981.959 625.754C980.685 637.989 978.176 650.141 976.12 662.264L968.101 711.207C959.959 760.351 952.212 809.671 943.394 858.691C936.319 858.555 929.227 858.647 922.15 858.641C921.231 846.975 924.529 836.452 927.257 825.267C928.731 819.227 929.97 813.135 931.238 807.05L960.139 667.78L968.34 627.339C970.112 618.379 972.611 608.858 972.697 599.715C972.761 592.992 970.071 586.951 967.561 580.863Z"/>
	<path fill="#FDFDFC" transform="scale(0.956062 0.956062)" d="M901.902 442.879C906.044 443.531 909.054 447.749 910.789 451.27C914.902 459.62 916.754 469.474 918.996 478.478L932.677 535.688C934.865 544.67 936.599 554.629 940.023 563.215C941.94 568.022 945.47 572.048 948.648 576.068C944.412 590.002 940.782 604.124 936.801 618.133L916.437 688.389C915.365 692.603 914.049 696.752 912.782 700.91C911.675 682.929 907.713 664.684 905.359 646.79L898.155 594.075C896.172 579.586 894.662 564.635 890.67 550.531C888.216 541.863 883.818 534.182 879.213 526.52C881.269 507.508 883.805 471.623 890.045 455.102C892.425 448.801 895.882 445.597 901.902 442.879Z"/>
	<path fill="#FDFDFC" transform="scale(0.956062 0.956062)" d="M398.785 681.715C398.819 681.716 398.853 681.715 398.887 681.717C402.994 681.975 405.832 683.082 409.183 685.465C417.76 691.567 429.366 704.621 437.196 712.412C452.112 727.254 467.538 741.731 481.859 757.149C446.132 758.986 410.314 760.037 374.622 762.386C349.906 763.384 325.216 765.725 300.491 766.332C302.77 758.645 305.725 750.913 308.945 743.571C314.611 743.203 338.237 742.883 341.36 740.487C342.372 738.649 342.657 736.897 342.74 734.805C342.941 729.722 341.979 724.205 341.465 719.129L337.922 686.62C344.481 685.506 351.412 685.463 358.059 684.937L398.785 681.715Z"/>
	<path fill="#FDFDFC" transform="scale(0.956062 0.956062)" d="M531.622 566.457C534.343 582.244 536.497 597.999 538.486 613.893C539.343 620.74 540.599 627.66 540.983 634.549L541.288 635.135C542.397 640.655 542.847 646.332 542.969 651.955C546.752 695.639 550.08 739.439 550.534 783.311C544.844 784.394 539.211 785.734 533.568 787.04C521.682 782.73 501.613 769.201 489.313 771.115C478.427 772.808 468.418 782.68 462.288 791.237C455.69 793.887 453.778 796.027 450.532 802.223C442.918 804.856 431.248 809.059 423.329 809.371C413.226 809.768 394.573 801.998 384.897 798.499C379.224 796.447 373.156 793.773 367.237 792.628C360.315 791.288 309.504 797.227 301.857 799.583C300.199 800.094 298.262 800.715 296.879 801.798C287.575 809.088 275.097 834.731 269.317 845.795C271.123 836.383 276.391 826.886 280.005 818.016C285.624 804.226 290.925 790.292 296.368 776.431C333.143 775.161 369.935 772.601 406.699 770.864L485.92 766.7C497.45 766.017 509.1 765.668 520.598 764.603C523.304 764.352 527.542 764.036 529.921 762.741C534.349 760.329 533.66 752.9 533.169 748.788C531.611 735.751 530.635 722.639 529.42 709.564C527.376 687.573 525.31 665.585 523.596 643.565C522.855 634.052 520.246 619.573 520.915 610.747C521.866 598.21 527.958 578.847 531.622 566.457Z"/>
	<path fill="#7E7D7D" transform="scale(0.956062 0.956062)" d="M542.969 651.955C541.87 647.404 532.34 635.622 532.922 632.482C533.161 631.197 533.722 630.494 534.692 629.703C535.272 629.657 535.416 629.611 536.05 629.747C538.32 630.233 539.791 632.788 540.983 634.549L541.288 635.135C542.397 640.655 542.847 646.332 542.969 651.955Z"/>
	<path fill="#FDFDFC" transform="scale(0.956062 0.956062)" d="M312.265 656.219L313.457 656.207C313.36 659.558 285.742 728.008 281.511 738.79L240.578 844.543L193.875 844.515L192.456 844.37L192.05 843.808C194.65 833.398 199.517 822.743 203.393 812.721L222.014 763.987L245.986 702.18C251.149 688.565 255.712 674.172 262.012 661.05C268.798 659.908 275.896 659.621 282.757 659.04C292.605 658.206 302.435 657.243 312.265 656.219Z"/>
	<path fill="#FDFDFC" transform="scale(0.956062 0.956062)" d="M548.892 793.623C550.409 793.432 551.634 793.361 553.124 793.755C560.488 795.704 567.633 799.551 574.677 802.447C587.884 807.877 624.6 821.625 636.817 822.321C648.256 822.973 666.557 818.812 678.016 816.656C700.963 812.337 723.936 808.11 746.787 803.3C759.978 800.523 773.592 796.576 786.92 794.773C789.188 794.466 791.264 794.235 793.42 795.14C803.215 799.252 816.631 815.721 820.374 825.265C808.246 822.317 796.754 821.435 785.065 826.613C770.749 832.955 761.485 844.246 755.867 858.59L700.75 858.491C688.162 858.489 675.299 859.036 662.743 858.412C659.26 858.239 656.067 856.589 652.621 856.469C650.207 856.384 648.047 857.78 645.721 858.218C639.423 859.402 626.383 859.463 620.241 857.65C596.489 850.64 586.396 826.716 556.728 824.063C547.767 828.185 543.125 837.39 534.993 842.506C533.148 842.305 531.308 841.92 529.479 841.603C534.852 830.272 543.65 819.92 553.493 812.215C556.632 812.742 558.976 813.494 561.896 811.818C562.6 810.788 563.113 810.302 562.822 808.966C562.518 807.569 561.292 806.268 560.178 805.451C558.546 804.255 556.351 803.548 554.319 803.736C546.65 804.443 520.499 820.204 514.303 825.335C509.154 829.599 502.165 842.094 495.137 842.207C493.851 842.228 493.134 841.788 492.253 840.931C491.841 838.814 492.79 837.28 493.852 835.512C499.112 826.752 519.517 802.736 528.347 798.81C534.378 796.129 542.407 795.155 548.892 793.623Z"/>
	<path fill="#FDFDFC" transform="scale(0.956062 0.956062)" d="M122.46 869.187C134.047 868.708 146.331 868.367 157.89 869.123C163.227 869.472 168.385 871.062 173.765 871.095L331.011 871.027L687.964 868.944L877.281 868.976C912.153 868.966 947.129 869.611 981.988 868.595L982.047 883.143L982.001 883.451C972.641 883.937 963.029 883.472 953.647 883.451L897.999 883.385L719.976 883.413L122.499 883.572C122.414 878.779 122.463 873.98 122.46 869.187Z"/>
	<path fill="#FDFDFC" transform="scale(0.956062 0.956062)" d="M707.694 292.084C709.273 291.91 710.916 291.796 712.503 291.859C717.38 292.051 722.127 294.453 725.3 298.125C731.09 304.825 732.38 315.257 731.783 323.783C731.047 334.312 726.498 344.922 718.426 351.9C710.496 358.757 705.535 357.537 696.22 356.91C694.598 358.894 692.369 361.942 691.77 364.441C691.404 365.971 691.788 366.765 692.622 368.024C696.2 370.01 699.778 369.226 703.721 368.95C704.5 372.98 705.624 377.571 707.506 381.238C708.997 384.143 711.017 387.063 712.092 390.136C713.789 394.99 714.65 400.317 715.848 405.325C717.912 413.947 720.599 422.48 724.282 430.553C732.102 447.697 744.809 456.437 762.11 462.917C760.37 465.053 758.545 467.144 756.636 469.131C734.528 492.14 688.844 520.147 656.778 520.576C648.783 520.683 640.395 519.41 634.54 513.415C629.314 508.064 628.402 501.474 628.544 494.36C630.746 490.663 632.644 488.256 636.284 485.792C636.691 491.395 636.335 497.115 636.971 502.693C637.239 505.053 637.666 507.67 639.856 509.038C640.953 509.724 641.812 509.766 643.036 509.542C644.032 508.872 644.645 508.337 645.112 507.199C646.36 504.155 646.107 500.305 646.094 497.064C646.022 479.966 643.498 475.916 636.717 460.584C646.797 449.465 655.535 437.35 663.542 424.67C666.972 419.271 683.12 396.03 681.982 391.136C681.796 390.336 681.513 390.345 680.892 389.923C680.297 389.962 679.674 389.858 679.107 390.041C677.697 390.497 669.544 400.74 667.672 402.682C649.302 421.739 616.126 445.798 589.087 446.334C589.038 446.306 588.988 446.278 588.939 446.251C587.231 445.316 585.663 444.413 584.314 442.984C575.41 433.548 560.343 401.602 555.049 388.788C560.017 389.672 564.719 390.3 569.385 387.79L569.338 386.259C564.332 383.02 556.937 382.49 551.357 380.024L550.727 379.74C557.509 362.961 559.746 356.93 558.51 338.784C561.759 338.36 564.991 338.109 568.261 337.91L568.402 338.508C570.997 349.202 576.721 359.66 586.365 365.483C593.766 369.952 602.884 371.363 611.267 369.188C618.402 367.338 624.488 362.743 628.118 356.305C634.053 345.783 633.112 334.991 629.953 323.793C644.584 321.19 658.368 315.895 672.341 313.207C675.988 319.085 677.989 325.68 681.254 331.725C682.09 333.274 682.885 334.815 684.637 335.337C688.124 333.317 688.846 319.341 689.755 315.245C690.571 311.561 691.708 307.898 693.372 304.504C696.522 298.078 701.009 294.369 707.694 292.084Z"/>
	<path fill="#030202" transform="scale(0.956062 0.956062)" d="M582.363 403.677C584.436 403.458 586.491 403.303 588.577 403.286C592.849 403.252 600.002 403.412 603.059 406.76C603.694 407.456 603.513 407.117 603.459 408.151C603.32 408.251 603.189 408.365 603.042 408.453C600.834 409.756 597.755 408.816 595.382 408.415C588.088 407.335 580.757 409.745 573.645 408.64C572.932 407.645 572.962 407.704 573.113 406.486C575.503 404.148 579.206 404.128 582.363 403.677Z"/>
	<path fill="#030202" transform="scale(0.956062 0.956062)" d="M708.6 301.042C709.702 300.951 710.866 300.872 711.971 300.933C713.469 301.016 715.105 301.698 716.079 302.859C714.096 305.581 707.984 305.55 704.856 311.202C701.964 316.426 702.857 323.682 704.464 329.169C705.257 331.877 706.402 335.844 709.133 337.186C711.432 338.316 713.536 335.592 715.654 334.926C716.713 334.593 716.902 334.81 717.819 335.3L718.041 336.487C717.346 338.424 716.378 339.745 715.117 341.359C714.524 341.973 713.919 342.572 713.279 343.137C710.608 345.496 705.53 349.301 701.772 348.575C700.979 348.422 700.266 348.039 699.786 347.397C698.299 345.41 698.798 342.793 699.016 340.477C699.929 330.784 695.196 322.541 698.487 312.386C700.263 306.903 703.602 303.639 708.6 301.042Z"/>
	<path fill="#FDFDFC" transform="scale(0.956062 0.956062)" d="M467.369 381.671C468.323 381.476 469.007 381.411 469.973 381.542C471.067 383.333 477.201 462.802 477.885 470.275L492.622 641.161L499.33 717.912C500.414 730.447 501.781 743.003 502.56 755.558C499.528 756.006 496.433 756.003 493.373 756.108C487.909 747.586 477.842 739.182 470.651 731.941C455.6 716.786 440.577 701.575 425.206 686.744C419.936 681.659 414.286 676.07 407.215 673.631C405.073 672.892 402.913 672.48 400.65 672.393C393.521 672.118 386.076 673.208 378.972 673.812C364.928 675.006 350.741 676.416 336.643 676.678C336.27 669.867 335.553 651.98 330.907 647.346C328.017 646.144 324.746 645.719 321.622 645.659C311.601 645.469 301.058 647.253 291.069 648.196C281.322 649.116 271.148 649.387 261.507 650.994C259.718 651.292 256.945 651.673 255.603 652.967C248.316 659.992 245.724 680.146 240.023 689.292C237.958 692.605 234.129 695.293 231.464 698.205C228.905 701.001 226.745 704.233 224.552 707.32C217 717.761 209.886 728.527 202.545 739.118C194.985 750.027 186.827 761.137 180.448 772.776C177.192 773.035 173.894 773.077 170.629 773.208C169.994 762.794 168.551 752.281 167.565 741.882L161.327 676.601L146.125 517.497C143.637 491.162 140.534 464.851 138.523 438.477L393.721 394.783C418.288 390.587 442.778 385.629 467.369 381.671Z"/>
	<path fill="#7E7D7D" transform="scale(0.956062 0.956062)" d="M370.11 458.979C370.326 458.987 370.542 458.998 370.758 459.004C376.754 459.165 383.126 458.148 388.992 456.961C391.335 456.486 393.834 455.583 396.232 455.573C397.898 455.565 400.215 456.076 401.265 457.482C402.08 458.576 401.816 459.215 401.574 460.426C400.727 461.423 400.071 462.026 398.818 462.47C395.941 463.488 392.232 463.442 389.187 463.897C383.619 464.728 378.012 465.679 372.488 466.765C372.56 465.31 372.96 462.849 372.513 461.464C371.996 459.86 371.507 459.746 370.11 458.979Z"/>
	<path fill="#030202" transform="scale(0.956062 0.956062)" d="M372.488 466.765C363.025 469.489 352.558 470.281 342.832 471.709L286.479 479.713L233.32 487.442C224.952 488.672 216.395 490.427 207.975 491.139C205.499 491.348 202.546 491.441 200.272 490.274C199.599 489.929 198.832 489.247 198.694 488.466C198.427 486.951 199.436 485.379 200.338 484.248C201.514 482.775 203.396 482.294 205.176 481.959C212.705 480.544 220.65 479.957 228.27 478.853L282.678 470.913L338.866 463.107C349.243 461.685 359.671 459.83 370.11 458.979C371.507 459.746 371.996 459.86 372.513 461.464C372.96 462.849 372.56 465.31 372.488 466.765Z"/>
	<path fill="#7E7D7D" transform="scale(0.956062 0.956062)" d="M351.844 523.192C353.411 522.846 355.685 522.697 357.249 523.095C359.137 523.574 360.712 524.894 361.606 526.609C362.458 528.244 362.759 530.313 363.015 532.121C363.819 537.788 364.043 543.587 364.604 549.29L368.23 586.447L370.748 614.713C371.225 619.566 372.031 624.427 372.352 629.287C372.467 631.027 372.6 633.154 372.009 634.821C371.528 636.181 371.077 636.501 369.815 637.101C368.95 636.963 368.295 637.02 367.596 636.438C366.369 635.418 365.876 633.965 365.574 632.447C365.028 629.708 365.138 626.812 364.958 624.031C364.637 619.069 364.096 614.039 363.614 609.085L358.667 558.799C357.776 549.259 357.333 539.541 355.954 530.065C345.773 529.551 330.978 532.599 320.462 533.949L250.25 542.707C245.847 543.168 241.496 543.614 237.159 544.538C236.973 554.805 238.319 565.289 239.237 575.519L243.233 619.83C243.652 624.25 245.974 636.487 244.984 640C244.67 641.116 243.747 642.26 242.639 642.672C241.378 643.141 240.809 642.792 239.701 642.273C239.115 641.567 238.726 641.006 238.505 640.099C237.406 635.59 237.362 630.412 236.947 625.779L234.344 595.505L231.374 563.264C230.821 557.222 229.912 550.805 230.075 544.738C230.116 543.212 230.487 541.887 231.389 540.643C232.653 538.9 234.756 537.924 236.798 537.432C240.929 536.435 245.384 536.443 249.603 535.983C256.591 535.222 263.571 534.27 270.547 533.394L351.844 523.192Z"/>
	<path fill="#FDFDFC" transform="scale(0.956062 0.956062)" d="M772.686 465.268C784.525 472.272 795.939 480.031 807.682 487.211L831.686 501.764C842.616 508.284 854.617 514.693 863.614 523.822C872.288 532.623 878.453 543.718 881.527 555.665C885.446 570.896 887.092 587.264 889.275 602.824C893.757 634.779 897.398 666.841 903.023 698.632C904.777 708.547 906.401 718.73 908.966 728.458C910.899 735.794 917.071 752.929 917.401 759.061C917.93 768.897 909.394 777.81 908.472 787.442C907.578 796.786 916.927 808.57 917.348 818.942C917.608 825.331 912.762 830.111 910.951 835.921C909.282 841.273 909.697 847.261 910.521 852.744C901.996 855.55 893.01 857.564 884.144 858.962C876.287 821.483 866.711 799.41 833.714 777.837L831.918 776.67C836.887 776.331 841.767 775.955 846.736 776.531C862.568 778.366 879.15 787.81 890.983 798.136C893.075 799.962 896.502 803.848 899.479 803.839C900.689 803.835 901.684 803.305 902.45 802.375C903.507 801.091 903.592 799.073 903.252 797.522C901.943 791.552 880.941 778.413 875.236 775.548C862.108 768.954 848.721 765.538 834.014 767.295C828.568 767.946 822.955 769.261 817.466 768.692C813.728 768.305 810.078 766.958 806.48 765.912C811.207 761.014 815.926 755.799 821.839 752.304C829.22 747.941 844.119 746.27 849.422 741.646C850.413 740.782 850.73 739.817 850.755 738.507C850.773 737.516 850.38 736.56 849.61 735.938C847.63 734.337 844.868 734.672 842.514 735.033C825.263 737.678 808.08 746.891 797.993 761.42C797.517 762.107 797.059 762.801 796.61 763.505C789.779 764.038 786.413 764.539 781.506 769.581C778.487 763.01 770.138 743.801 769.807 737.552C769.429 730.447 775.502 714.942 776.656 706.354C779.431 685.713 778.485 658.432 776.922 637.653C775.171 634.783 775.96 630.566 773.964 628.066C772.999 626.857 771.925 627.047 770.543 626.94L769.783 626.935C766.586 631.542 768.745 638.055 766.684 642.858C770.227 656.735 768.57 696.947 765.813 710.942C764.066 719.816 758.776 730.407 759.669 739.369C760.424 746.945 769.542 766.418 772.493 775.116C768.474 779.838 765.544 784.118 762.845 789.692C748.024 793.705 732.183 796.046 717.086 799C698.007 802.733 678.932 806.35 659.75 809.521C652.938 810.647 644.616 812.892 637.716 812.372C626.794 811.549 595.478 799.818 584.246 795.152C581.814 794.496 579.502 793.711 577.148 792.823L560.735 786.331C559.024 768.738 559.226 750.631 558.532 732.947C557.308 701.748 554.95 670.95 549.7 640.135C545.898 639.203 545.478 635.046 542.277 633.93L541.288 635.135L540.983 634.549C540.599 627.66 539.343 620.74 538.486 613.893C536.497 597.999 534.343 582.244 531.622 566.457C532.319 562.271 536.164 558.336 537.771 554.354C540.141 549.474 543.718 545.508 547.801 541.977C554.81 535.914 562.985 531.034 570.836 526.141C586.92 516.117 604.007 506.638 619.047 495.117C619.118 504.931 621.234 513.777 628.439 520.903C636.123 528.504 647.039 530.53 657.479 530.374C695.086 529.814 740.2 500.149 765.561 473.494C768.056 470.871 770.419 468.091 772.686 465.268Z"/>
	<path fill="#7E7D7D" transform="scale(0.956062 0.956062)" d="M766.684 642.858C765.121 637.625 759.427 618.405 760.961 613.805C761.428 612.405 762.023 612.179 763.195 611.391C764.365 611.379 764.746 611.347 765.763 612.015C769.169 614.25 769.073 623.06 769.783 626.935C766.586 631.542 768.745 638.055 766.684 642.858Z"/>
	<path fill="#7E7D7D" transform="scale(0.956062 0.956062)" d="M853.233 523.545C854.502 523.472 855.574 523.298 856.614 524.208C857.655 525.12 857.917 525.87 858.058 527.199C857.59 528.192 857.414 528.703 856.441 529.309C853.104 531.387 847.823 532.542 844.014 533.971C840.012 535.472 836.116 537.222 832.22 538.975C831.351 539.101 830.566 539.267 829.72 538.908C828.594 538.43 827.787 537.308 827.457 536.165C827.219 535.342 827.476 534.833 827.926 534.113C830.503 529.988 848.032 524.893 853.233 523.545Z"/>
	<path fill="#434343" transform="scale(0.956062 0.956062)" d="M730.868 521.81C726.641 525.867 710.028 536.217 704.612 536.969C703.032 537.188 702.24 536.841 700.985 535.922C700.743 535.206 700.365 534.649 700.594 533.891C701.534 530.773 717.956 521.036 721.626 519.275C725.244 520.848 727.001 517.669 730.868 521.81Z"/>
	<path fill="#7E7D7D" transform="scale(0.956062 0.956062)" d="M646.326 544.551C658.394 546.022 671.123 543.42 682.545 539.596C685.304 538.672 688.904 536.545 691.669 536.119C693.016 535.911 693.39 536.163 694.511 536.787C695.259 538.024 695.343 538.186 695.312 539.623C692.69 544.424 681.623 547.018 676.427 548.522C665.661 551.638 654.297 552.84 643.143 551.323C643.979 551.133 644.469 551.058 645.11 550.442C646.344 549.255 646.233 546.137 646.326 544.551Z"/>
	<path fill="#434343" transform="scale(0.956062 0.956062)" d="M643.143 551.323C636.602 549.594 631.083 547.658 625.451 543.837C616.396 537.694 609.825 525.173 608.111 514.514C607.783 512.475 607.715 509.675 609.247 508.052C610.145 507.1 610.69 506.996 611.888 506.953C616.58 510.462 618.518 523.585 622.218 529.229C627.791 537.731 636.558 542.48 646.326 544.551C646.233 546.137 646.344 549.255 645.11 550.442C644.469 551.058 643.979 551.133 643.143 551.323Z"/>
	<path fill="#030202" transform="scale(0.956062 0.956062)" d="M721.626 519.275C730.532 511.994 739.568 504.807 748.208 497.213C752.223 493.683 769.324 476.126 772.005 475.468C773.551 475.813 774.645 476.284 775.49 477.711C776.062 478.678 776.271 479.18 775.934 480.286C775.123 482.938 770.947 486.477 768.989 488.465C756.925 500.715 744.601 511.476 730.868 521.81C727.001 517.669 725.244 520.848 721.626 519.275Z"/>
	<path fill="#434343" transform="scale(0.956062 0.956062)" d="M531.622 566.457C532.319 562.271 536.164 558.336 537.771 554.354C538.804 565.232 541.191 576.068 542.872 586.871C545.621 604.534 547.904 622.351 549.7 640.135C545.898 639.203 545.478 635.046 542.277 633.93L541.288 635.135L540.983 634.549C540.599 627.66 539.343 620.74 538.486 613.893C536.497 597.999 534.343 582.244 531.622 566.457Z"/>
	<defs>
		<linearGradient id="gradient_0" gradientUnits="userSpaceOnUse" x1="604.22229" y1="764.23572" x2="546.21124" y2="722.1665">
			<stop offset="0" stop-color="#717470"/>
			<stop offset="1" stop-color="#858284"/>
		</linearGradient>
	</defs>
	<path fill="url(#gradient_0)" transform="scale(0.956062 0.956062)" d="M577.148 792.823C575.088 770.996 572.239 749.14 569.528 727.382C568.369 718.076 566.386 708.272 565.932 698.952C565.828 696.803 565.906 693.807 567.214 691.967C567.511 691.55 567.798 691.375 568.185 691.09C569.405 691.109 569.956 691.303 570.846 692.186C572.28 693.611 573.116 695.917 573.462 697.866C573.942 700.574 573.906 703.426 574.207 706.172L576.506 725.905C579.231 748.951 581.988 772.058 584.246 795.152C581.814 794.496 579.502 793.711 577.148 792.823Z"/>
	<path fill="#434343" transform="scale(0.956062 0.956062)" d="M770.543 626.94C771.504 626.57 772.311 626.551 772.744 625.574C775.394 619.605 776.96 612.85 779.237 606.681C786.351 587.406 796.064 565.447 809.604 549.829C811.88 547.205 815.076 543.041 818.325 541.702C819.223 541.331 820.322 541.161 821.228 541.62C822.441 542.236 822.525 542.84 822.902 544.031C822.17 549.715 813.444 557.005 810.091 561.887C807.43 565.762 805.229 570.086 802.986 574.214C794.541 589.753 787.947 605.852 782.064 622.509C780.305 627.491 778.263 632.546 776.922 637.653C775.171 634.783 775.96 630.566 773.964 628.066C772.999 626.857 771.925 627.047 770.543 626.94Z"/>
</svg>
