<?xml version="1.0" encoding="utf-8" ?>
<svg xmlns="http://www.w3.org/2000/svg" xmlns:xlink="http://www.w3.org/1999/xlink" width="979" height="979">
	<path fill="rgba(255,255,255,0)" transform="scale(0.956062 0.956062)" d="M42.3278 19.3566L631.956 19.4443L866.575 19.4375C904.814 19.4424 943.164 18.7066 981.391 19.4587L981.297 407.124L981.351 516.973C981.354 537.906 980.623 559.145 981.806 580.034C981.852 580.162 981.896 580.292 981.945 580.42C982.932 582.992 984.591 585.178 985.941 587.562C988.781 592.576 990.875 598.241 991.883 603.919C993.955 615.592 989.864 625.344 986.768 636.333C985.488 640.876 984.654 645.575 983.988 650.243C981.9 664.857 981.508 679.975 981.277 694.718C982.348 711.888 981.901 728.905 981.784 746.093L981.409 813.524C981.351 824.227 979.972 849.001 982.382 858.505C982.568 861.889 982.552 865.192 982.412 868.577C982.069 873.396 981.625 878.684 982.306 883.473C982.42 886.75 982.836 890.514 982.25 893.751C981.053 907.199 981.972 921.477 981.997 935.002L981.989 1004.56L249.659 1004.61L42.3643 1004.68C41.5362 991.466 41.997 977.971 41.9976 964.731L42.1827 894.589L42.3311 701.488L42.3278 19.3566Z"/>
	<path fill="rgba(255,255,255,0)" transform="scale(0.956062 0.956062)" d="M540.214 190.849C537.814 191.714 535.331 192.567 533.034 193.679C529.048 195.609 524.993 198.919 520.623 199.802C519.83 199.061 519.514 198.613 519.402 197.482C519.177 195.215 521.068 192.89 522.563 191.411C531.553 182.52 545.149 178.903 556.179 173.173C563.483 169.379 570.254 164.276 577.254 159.938C596.937 147.74 619.843 138.182 643.314 138.37C664.506 138.54 680.955 145.901 695.67 160.989C693.853 158.075 689.633 153.355 689.578 149.976C689.564 149.131 689.822 149.087 690.331 148.507C692.243 148.548 693.694 149.828 695.146 150.948C704.005 157.78 706.429 166.538 707.863 177.188C719.04 175.781 728.996 177.588 738.912 183.047C751.395 189.919 761.495 201.203 765.479 215.04C768.498 225.527 767.261 234.78 761.974 244.222C766.965 258.147 771.002 271.533 766.682 286.324C765.515 290.321 763.074 295.844 759.291 297.911L758.451 297.635C757.632 293.308 758.181 288.465 757.642 283.989C754.713 304.054 746.707 323.714 738.321 342.049C732.767 354.191 723.492 365.842 722.511 379.534C721.09 399.362 730.809 426.608 743.687 441.625C755.597 441.528 767.433 439.381 779.256 438.137L833.766 432.667C851.196 430.861 868.813 428.682 886.351 428.498C901.792 428.336 921.557 430.119 933.271 441.55C936.877 445.069 939.099 449.16 940.924 453.793C944.853 463.774 946.706 474.768 949.212 485.187L961.519 536.391C963.71 545.772 965.208 556.287 969.52 564.939C972.489 570.897 977.111 575.434 981.806 580.034C981.852 580.162 981.896 580.292 981.945 580.42C982.932 582.992 984.591 585.178 985.941 587.562C988.781 592.576 990.875 598.241 991.883 603.919C993.955 615.592 989.864 625.344 986.768 636.333C985.488 640.876 984.654 645.575 983.988 650.243C981.9 664.857 981.508 679.975 981.277 694.718C982.348 711.888 981.901 728.905 981.784 746.093L981.409 813.524C981.351 824.227 979.972 849.001 982.382 858.505C982.568 861.889 982.552 865.192 982.412 868.577C982.069 873.396 981.625 878.684 982.306 883.473C982.42 886.75 982.836 890.514 982.25 893.751C968.398 894.138 954.599 893.736 940.75 893.71L868.536 893.692L636.079 893.691L281.706 893.691L176.249 893.707C160.9 893.737 145.554 894.145 130.202 893.982C125.798 893.935 118.829 894.244 114.935 892.03C112.993 889.767 112.609 886.924 112.401 884.027C112.014 878.634 111.073 864.99 114.916 860.954C116.293 859.508 118.208 858.936 120.127 858.622C124.944 857.831 130.4 858.382 135.277 858.431L159.484 858.495C159.445 856.828 159.374 855.136 159.442 853.469C159.546 850.944 160.407 848.293 162.366 846.588C166.593 842.908 175.569 844.342 180.844 844.552C189.123 823.751 197.091 802.564 204.706 781.508C197.129 782.59 168.099 785.352 162.988 780.405C160.945 778.427 160.421 772.759 160.066 770.018C158.641 759.012 158.089 747.808 157.025 736.752L149.847 663.02L129.198 452.11C128.726 447.303 127.001 435.11 130.355 431.299C131.055 430.503 132.023 429.785 133.022 429.417C139.843 426.901 160.202 424.634 168.568 423.226L252.938 408.746L407.344 382.04L448.483 374.788C457.983 373.053 467.87 370.652 477.52 370.193C483.426 369.912 493.644 371.488 498.025 375.778C499.501 377.222 499.934 379.187 500.279 381.149C502.041 391.153 502.57 401.452 503.458 411.566L507.53 456.411L513.691 527.142C515.134 543.907 516.763 560.686 517.606 577.493C522.063 566.296 524.442 554.9 531.61 544.884C544.252 527.218 578.991 508.899 597.8 497.343C609.422 490.203 620.593 482.617 632.559 476.013C629.159 467.855 625.483 457.364 618.637 451.546C607.663 452.607 592.046 459.761 581.811 453.705C566.795 444.82 545.461 394.929 540.767 377.597C533.566 376.862 527.647 375.496 521.866 370.82C513.527 364.075 508.46 353.704 507.343 343.121C506.024 330.63 510.388 323.047 518.014 313.64C506.635 297.542 504.906 281.682 506.591 262.442C505.662 265.101 504.773 267.767 504.012 270.48C500.779 282.012 500.472 291.997 507.487 302.24C509.612 305.343 512.187 307.974 514.007 311.296C514.109 311.482 514.206 311.671 514.306 311.859C512.001 311.114 509.844 310.244 507.752 309.007C500.759 304.87 496.191 297.732 494.285 289.956C489.143 268.969 500.506 250.013 510.959 232.798C506.344 236.563 500.476 240.872 497.774 246.318C496.462 248.964 495.848 251.962 494.525 254.617C493.93 255.81 493.482 256.343 492.25 256.804C490.677 255.448 490.425 253.292 490.209 251.3C489.155 241.607 496.909 231.66 504.401 226.268C508.409 223.383 512.925 221.156 516.482 217.683C525.01 209.357 532.602 200.004 540.214 190.849Z"/>
	<path fill="#ffffff" transform="scale(0.956062 0.956062)" d="M526.487 828.511C526.112 832.901 521.047 839.25 518.451 842.821C518.063 841.661 517.961 840.815 518.19 839.625C519.056 835.107 522.765 830.999 526.487 828.511Z"/>
	<path fill="#ffffff" transform="scale(0.956062 0.956062)" d="M532.769 318.063C537.533 319.834 540.986 322.974 544.512 326.498L536.526 326.498C535.097 323.721 533.847 320.996 532.769 318.063Z"/>
	<path fill="#ffffff" transform="scale(0.956062 0.956062)" d="M520.579 320.278L521.599 320.674C524.317 323.441 525.535 328.053 526.795 331.632C524.516 332.277 522.18 332.789 519.88 333.362C518.127 333.869 516.175 334.668 514.339 334.472C514.3 334.327 514.241 334.185 514.223 334.036C513.788 330.524 518.703 323.235 520.579 320.278Z"/>
	<path fill="#ffffff" transform="scale(0.956062 0.956062)" d="M734.89 192.778C737.922 193.239 741.216 195.661 743.532 197.656C752.246 205.163 757.023 215.815 757.869 227.112C756.798 226.169 752.436 214.981 750.992 212.488C746.935 205.482 740.566 198.55 734.89 192.778Z"/>
	<path fill="#ffffff" transform="scale(0.956062 0.956062)" d="M540.343 331.639L541.996 332.124C544.98 334.993 544.399 341.021 545.909 344.856C547.205 348.148 548.933 349.051 552.061 350.488C551.623 354.05 550.777 357.224 549.657 360.621L548.371 363.913L547.937 363.726C545.658 353.021 541.896 342.528 540.343 331.639Z"/>
	<path fill="#ffffff" transform="scale(0.956062 0.956062)" d="M356.455 827.714C357.767 827.595 358.327 827.416 359.538 827.984L359.736 829.163C358.798 831.8 356.745 833.999 355.045 836.194C350.022 833.769 346.014 832.593 340.48 831.858L329.553 831.173C338.338 828.554 347.37 828.341 356.455 827.714Z"/>
	<path fill="#ffffff" transform="scale(0.956062 0.956062)" d="M557.738 833.788C564.697 836.55 571.268 839.742 577.818 843.351L569.125 843.069C561.85 842.799 554.583 842.566 547.304 842.466C550.884 839.714 554.288 836.704 557.738 833.788Z"/>
	<path fill="#ffffff" transform="scale(0.956062 0.956062)" d="M368.723 853.297C374.168 852.984 379.617 853.019 385.068 853.005C385.034 855.446 385.383 858.777 383.957 860.828L382.125 861.003L365.712 861.004C365.707 858.456 364.918 855.605 366.516 853.446L368.723 853.297Z"/>
	<path fill="#ffffff" transform="scale(0.956062 0.956062)" d="M490.057 780.005L490.881 780.125C494.503 780.629 504.21 782.805 506.627 785.368C506.187 785.67 506.42 785.556 505.799 785.733L503.686 786.338C499.442 787.561 496.238 791.569 491.763 791.79C485.96 790.347 480.32 790.274 474.38 790.259C479.654 786.769 484.308 782.77 490.057 780.005Z"/>
	<path fill="#ffffff" transform="scale(0.956062 0.956062)" d="M640.25 147.71C640.384 147.707 640.518 147.702 640.652 147.702C659.83 147.606 675.726 153.069 689.595 166.479C684.523 163.234 679.164 160.95 673.622 158.66C656.721 150.628 636.356 150.801 618.066 151.698C625.319 149.322 632.658 148.233 640.25 147.71Z"/>
	<path fill="#ffffff" transform="scale(0.956062 0.956062)" d="M306.8 807.649L313.54 807.188C308.584 813.783 301.978 819.113 296.998 825.833C293.062 831.143 291.02 837.486 286.758 842.599C286.636 842.673 286.519 842.755 286.392 842.82C285.043 843.522 284.042 843.683 282.621 843.172C282.268 841.79 282.488 840.946 282.959 839.603C285.908 831.194 299.293 811.219 306.8 807.649Z"/>
	<path fill="#ffffff" transform="scale(0.956062 0.956062)" d="M799.988 832.651L800.299 833.16C797.596 836.072 793.769 838.071 790.63 840.519C784.456 845.334 779.865 852.166 775.715 858.701C772.992 858.818 770.258 858.615 767.536 858.489L766.84 857.81C766.824 855.765 767.836 854.23 768.943 852.579C776.012 842.034 787.732 835.158 799.988 832.651Z"/>
	<path fill="#ffffff" transform="scale(0.956062 0.956062)" d="M632.886 297.464C638.412 298.773 643.36 301.588 648.811 303.027C655.242 304.724 661.648 304.181 668.036 306.542C656.467 311.949 642.869 314.135 630.418 316.83C625.127 317.515 615.959 309.677 611.56 306.687C611.935 306.798 612.31 306.909 612.688 307.013C624.551 310.287 636.018 311.056 647.014 304.844C642.014 302.748 637.149 300.904 632.886 297.464Z"/>
	<path fill="#ffffff" transform="scale(0.956062 0.956062)" d="M328.597 692.318C330.505 697.436 332.025 725.037 332.604 732.476C327.284 732.476 321.933 732.874 316.619 733.126C315.295 733.15 315.018 733.166 313.871 732.535C313.606 728.618 326.462 697.891 328.597 692.318Z"/>
	<path fill="#ffffff" transform="scale(0.956062 0.956062)" d="M228.345 718.886C228.516 724.172 211.665 764.822 208.563 771.452L192.212 772.1C192.368 770.075 224.926 723.32 228.345 718.886Z"/>
	<path fill="#ffffff" transform="scale(0.956062 0.956062)" d="M531.391 337.121L532.12 337.302C534.481 342.423 537.91 363.45 539.379 370.062C534.627 369.478 531.046 368.377 527.043 365.781C519.661 358.907 517.016 351.311 514.236 341.886C520.008 340.743 525.602 338.401 531.391 337.121Z"/>
	<path fill="#ffffff" transform="scale(0.956062 0.956062)" d="M516.327 795.233L517.303 795.115L517.405 795.648C511.984 801.237 505.828 806.092 500.471 811.755C496.007 816.475 492.402 821.96 488.514 827.15C485.229 831.535 478.606 840.654 472.773 841.498C472.196 841.205 471.82 841.027 471.248 840.677C470.243 840.063 469.413 839.499 469.325 838.225C468.707 829.258 496.512 802.113 503.692 795.507C507.899 795.508 512.12 795.332 516.327 795.233Z"/>
	<path fill="#ffffff" transform="scale(0.956062 0.956062)" d="M532.557 275.392C534.564 279.887 536.372 284.478 538.474 288.929C545.977 304.819 555.678 310.81 571.628 316.445C569.906 321.301 568.86 326.453 567.733 331.477C563.654 331.475 559.736 331.753 555.701 332.35C551.442 323.505 546.224 317.484 537.511 312.869C534.502 311.642 531.644 310.686 528.413 310.275C528.126 303.119 527.986 296.006 528.073 288.844C531.338 296.609 536.159 304.862 543.494 309.401C546.822 311.46 553.602 314.156 557.6 313.252L557.734 312.646C554.612 309.565 550.213 307.825 546.854 304.894C538.717 297.795 533.296 286.729 532.586 275.934C532.574 275.754 532.567 275.573 532.557 275.392Z"/>
	<path fill="#ffffff" transform="scale(0.956062 0.956062)" d="M918.275 443.913C921.001 444.786 923.522 446.302 925.705 448.146C928.53 450.534 930.01 453.11 931.279 456.533C934.328 464.756 936.161 473.573 938.212 482.088L947.103 518.991L953.653 545.62C955.733 553.766 958.277 561.759 958.92 570.181C958.002 569.895 957.047 569.56 956.218 569.068C952.967 567.137 950.869 563.249 949.478 559.863C945.619 550.47 943.822 539.908 941.465 530.043C936.676 509.999 932.351 489.722 927.061 469.814C924.698 460.916 920.797 452.668 918.275 443.913Z"/>
	<path fill="#ffffff" transform="scale(0.956062 0.956062)" d="M822.828 836.687C825.87 836.728 828.848 837.167 831.756 838.07C841.972 841.242 850.813 849.129 855.782 858.504C844.389 858.392 833.031 858.783 821.625 858.533C810.007 858.962 798.341 858.733 786.716 858.708C787.456 857.703 788.205 856.707 788.974 855.725C797.838 844.403 808.607 838.432 822.828 836.687Z"/>
	<path fill="#ffffff" transform="scale(0.956062 0.956062)" d="M578.551 318.476C585.79 320.712 593.322 320.892 600.829 321.086C598.074 322.819 595.711 324.589 593.385 326.87C595.923 326.21 598.3 325.454 600.742 324.498C601.95 327.983 603.212 331.735 605.471 334.697C606.852 336.507 608.75 338.231 611.12 338.448C612.555 338.579 613.943 338.074 615.036 337.151C619.117 333.706 619.117 326.627 619.457 321.72C623.94 328.137 625.136 334.008 624.831 341.621C624.596 343.633 624.303 345.719 623.727 347.667C622.085 353.222 618.487 358.168 613.258 360.814C607.718 363.616 600.996 363.538 595.245 361.414C587.53 358.565 581.534 352.313 578.275 344.842C574.476 336.133 575.176 327.18 578.551 318.476Z"/>
	<path fill="#ffffff" transform="scale(0.956062 0.956062)" d="M429.61 851.748C479.941 851.527 530.182 852.986 580.497 853.516L580.497 860.495C569.202 860.518 557.918 860.505 546.625 860.285L395.507 860.253L395.518 852.243C406.896 852.35 418.238 852.137 429.61 851.748Z"/>
	<path fill="#ffffff" transform="scale(0.956062 0.956062)" d="M791.794 773.574C804.01 772.597 822.306 782.214 832.338 788.783C857.685 805.38 867.756 829.885 873.712 858.461L866.423 858.509C865.335 856.005 864.007 853.622 862.711 851.221C854.026 839.052 846.372 833.851 833.138 827.554C825.209 812.932 815.314 795.396 799.97 787.607C791.446 783.28 783.566 784.54 774.959 787.392C779.74 782.019 785.628 777.257 791.794 773.574Z"/>
	<path fill="#ffffff" transform="scale(0.956062 0.956062)" d="M953.299 858.507C960.025 821.092 965.8 783.488 972.059 745.991C973.851 735.256 975.647 724.52 977.65 713.822C978.842 707.46 980.351 701.12 981.277 694.718C982.348 711.888 981.901 728.905 981.784 746.093L981.409 813.524C981.351 824.227 979.972 849.001 982.382 858.505L953.299 858.507Z"/>
	<path fill="#ffffff" transform="scale(0.956062 0.956062)" d="M956.807 584.263C957.345 584.64 957.75 585.131 958.153 585.648C961.133 589.462 962.909 594.67 962.887 599.507C962.816 615.701 955.572 640.915 952.162 657.491L934.148 745.403C930.206 764.407 925.818 783.203 922.624 802.361L920.569 795.401L918.031 787.963C919.69 784.746 920.973 781.219 922.355 777.872C926.578 767.651 928.892 759.418 925.702 748.45C923.954 742.444 921.438 736.665 919.73 730.646C918.349 725.777 917.37 720.579 918.059 715.513C918.813 709.966 921.189 704.549 922.959 699.256C925.42 691.894 927.817 684.504 929.999 677.055L945.877 622.363C949.43 609.666 952.463 596.717 956.807 584.263Z"/>
	<path fill="#ffffff" transform="scale(0.956062 0.956062)" d="M323.933 658.439C325.332 659.837 325.65 663.559 325.786 665.542C326.125 670.493 325.168 674.769 323.645 679.44C319.855 691.063 314.721 702.484 310.34 713.909L278.674 794.678C274.344 805.443 269.925 816.182 265.715 826.995C263.422 832.882 261.589 839.492 258.593 845.041C257.554 846.966 255.095 847.412 253.969 849.178C253.243 850.316 253.288 851.515 253.411 852.793C255.336 853.989 258.604 853.897 260.849 853.96C272.742 854.297 284.791 853.55 296.698 853.394C316.46 853.136 336.239 853.258 356.003 853.33L356.009 861.003L272.75 861L169.725 861.005L169.554 854.732C197.468 853.477 225.556 855.991 253.436 854.192C252.676 851.395 251.773 849.02 250.254 846.54C256.141 829.772 262.821 813.361 269.337 796.828L292.803 736.797L309.682 693.179C314.172 681.485 318.445 669.713 323.933 658.439Z"/>
	<path fill="#ffffff" transform="scale(0.956062 0.956062)" d="M482.474 800.575L482.655 800.965C482.242 803.942 467.731 821.952 464.973 826.035C461.77 830.776 459.266 835.924 456.692 841.022C449.589 840.914 408.284 843.109 405.117 841.505C405.566 840.044 406.677 837.375 406.351 835.879C406.097 834.71 404.912 833.41 403.956 832.758C394.844 826.549 376.194 838.684 367.29 842.069C364.709 843.051 362.054 843.442 359.339 843.852C364.838 837.979 372.984 828.801 375.532 821.172C376.142 819.345 376.061 818.265 375.163 816.576C373.605 815.556 372.405 815.43 370.603 815.505C365.744 815.708 360.876 817.254 356.056 817.946C347.291 819.204 338.4 819.94 329.592 820.869C327.377 822.653 325.444 824.667 323.469 826.707C318.017 832.415 308.913 842.717 300.634 843.12C299.366 842.529 299.405 842.631 298.92 841.327C299.758 832.694 319.674 813.377 326.325 806.272C336.428 804.068 355.571 801.23 365.579 802.72C370.964 803.521 376.05 805.669 381.111 807.581C395.108 812.87 411.608 820.611 426.834 819.004C445.857 816.996 464.545 806.811 482.474 800.575Z"/>
	<path fill="#ffffff" transform="scale(0.956062 0.956062)" d="M480.205 380.539C483.846 381.416 487.44 382.408 491.039 383.444C492.829 399.681 493.809 416.074 495.283 432.35L506.255 557.73L523.239 749.116C523.382 750.905 523.666 752.749 522.874 754.42C519.441 755.022 515.957 755.287 512.489 755.619C509.25 734.698 508.536 712.908 506.817 691.804L497.821 586.883L486.602 456.623C484.369 431.315 481.205 405.924 480.205 380.539Z"/>
	<path fill="#ffffff" transform="scale(0.956062 0.956062)" d="M880.804 438.701C884.027 438.468 887.314 438.54 890.547 438.497C886.578 442.145 883.556 446.02 881.293 450.943C873.95 466.919 872.351 498.415 870.764 516.585C864.201 512.144 858.259 506.695 851.671 502.19C838.78 493.376 825.053 485.657 811.624 477.702C800.825 471.092 790.037 464.526 778.913 458.468C773.355 455.441 767.628 452.792 762.036 449.838C801.477 445.184 841.191 441.52 880.804 438.701Z"/>
	<path fill="#ffffff" transform="scale(0.956062 0.956062)" d="M968.017 581.293C971.462 583.557 974.271 585.986 976.645 589.382C983.562 599.276 982.469 612.332 981.841 623.871C981.247 634.763 978.968 645.768 977.152 656.506L969.326 703.502C960.82 755.235 952.636 807.043 943.415 858.654C939.697 858.743 935.969 858.715 932.25 858.743L922.293 858.713C922.034 839.951 928.187 821.807 931.979 803.552L961.911 659.054L968.278 628.013C970.126 619.119 972.602 609.58 972.609 600.478C972.614 593.65 970.149 587.661 968.017 581.293Z"/>
	<path fill="#ffffff" transform="scale(0.956062 0.956062)" d="M901.245 442.97C901.498 442.992 901.752 443.001 902.003 443.036C905.968 443.587 908.727 447.482 910.435 450.776C915.152 459.871 917.125 470.64 919.502 480.553L931.415 530.574C933.944 541.331 935.865 553.345 940.141 563.537C942.095 568.194 945.634 572.291 948.795 576.163C944.139 589.528 940.916 603.632 937.053 617.251L916.561 688.113L912.714 701.101C912.116 681.677 907.281 660.618 904.593 641.249L898.107 593.433C896.166 578.987 894.493 564.436 890.542 550.365C888.14 541.81 883.747 534.415 879.379 526.755C879.583 520.273 880.518 513.705 881.164 507.245C882.596 492.933 884.032 478.469 887.363 464.451C889.798 454.205 891.966 448.65 901.245 442.97Z"/>
	<path fill="#ffffff" transform="scale(0.956062 0.956062)" d="M398.34 681.753C398.671 681.75 399.002 681.728 399.332 681.746C403.38 681.961 407.34 684.107 410.53 686.479C420.516 693.908 431.528 706.466 440.553 715.49C454.336 729.271 468.865 742.771 481.927 757.22C447.03 758.028 411.94 760.273 377.093 762.333C351.562 762.867 326.019 766.336 300.484 766.241C303.053 758.543 305.749 750.955 308.955 743.495C316.443 743.396 334.791 743.715 340.948 740.327C344.868 734.283 338.934 696.138 338.051 686.634C357.978 684.219 378.311 683.321 398.34 681.753Z"/>
	<path fill="#ffffff" transform="scale(0.956062 0.956062)" d="M531.534 567.306C533.748 575.036 534.399 584.297 535.525 592.301C537.445 605.947 539.814 619.853 540.687 633.597C539.747 632.541 538.669 631.315 537.469 630.558C536.324 629.835 535.63 629.729 534.338 629.982C530.055 634.668 540.051 644.579 541.921 649.129C543.589 653.185 543.607 658.47 543.951 662.801C547.143 702.911 549.866 742.979 550.516 783.226C544.704 784.5 538.893 785.769 533.062 786.952C519.419 781.726 501.946 768.203 486.916 771.699C475.549 774.343 469.678 783.489 461.761 790.931C456.235 796.125 454.816 794.751 450.398 802.118C422.813 814.37 410.75 808.2 384.292 798.289C378.422 796.09 372.466 793.638 366.228 792.722C355.75 791.183 322.096 796.124 310.421 797.989C298.515 799.891 295.749 801.508 288.623 811.351C281.288 822.174 275.411 833.808 269.323 845.353C271.926 835.329 276.579 826.09 280.514 816.554C285.985 803.292 291.13 789.884 296.365 776.527L425.833 769.781C457.015 768.226 488.587 767.551 519.652 764.602C522.532 764.329 527.242 764.072 529.804 762.712C534.732 760.095 533.53 751.895 532.997 747.353C529.284 715.686 527.034 683.717 524.327 651.944C523.169 638.351 520.029 623.76 521.046 610.162C522.111 595.926 527.02 580.792 531.534 567.306Z"/>
	<path fill="#ffffff" transform="scale(0.956062 0.956062)" d="M307.335 656.701C309.298 656.356 311.51 656.426 313.512 656.314C304.685 683.183 293.144 709.419 282.731 735.72L240.597 844.505L199.75 844.5L191.903 844.449C194.734 833.622 199.203 823.276 203.272 812.875L216.953 777.217L243.186 709.39C249.378 693.275 255.194 677.11 261.819 661.157C268.017 659.981 274.483 659.705 280.768 659.167L307.335 656.701Z"/>
	<path fill="#ffffff" transform="scale(0.956062 0.956062)" d="M549.176 793.627C556.288 792.838 573.841 802.132 581.266 805.05C595.009 810.452 622.135 821.344 636.545 822.243C652.269 823.225 673.735 817.491 689.551 814.505C709.62 810.716 729.833 807.154 749.751 802.638C762.187 799.818 775.377 795.647 788.091 794.657C790.241 794.49 791.697 794.726 793.673 795.544C804.597 800.066 815.876 814.48 820.21 825.21C808.085 822.554 796.216 821.698 784.587 826.816C770.86 832.857 761.414 844.842 755.999 858.501L702.75 858.499C689.737 858.435 676.689 858.892 663.678 858.453C660.11 858.333 656.798 856.759 653.278 856.713C650.19 856.674 646.776 857.626 643.725 858.163C635.834 859.55 627.399 859.586 619.647 857.373C595.553 850.494 585.332 826.091 556.148 824.213C548.033 829.263 542.533 836.905 534.968 842.649L529.508 841.489C535.778 830.178 543.068 820.364 553.393 812.412C555.21 812.552 558.066 813.082 559.729 812.375C561.359 811.681 562.193 810.823 562.779 809.126C562.616 807.984 562.582 807.507 561.821 806.584C560.527 805.016 558.049 804.271 556.099 804.091C546.804 803.233 521.405 819.295 514.281 825.67C509.875 829.612 506.743 834.678 502.251 838.451C499.888 840.436 496.872 842.767 493.632 842.501C493.054 841.976 492.75 841.894 492.586 841.083C491.98 838.09 494.217 834.861 495.819 832.49C501.752 823.71 518.293 803.944 527.455 799.298C533.957 796 542.091 795.031 549.176 793.627Z"/>
	<path fill="#ffffff" transform="scale(0.956062 0.956062)" d="M122.506 869.275C134.036 868.673 145.663 868.376 157.191 869.178C163.717 869.633 170.092 871.003 176.665 871.021L346.25 870.989L669.995 868.999L858.805 868.98C900.026 868.987 941.193 869.232 982.412 868.577C982.069 873.396 981.625 878.684 982.306 883.473L122.497 883.493L122.506 869.275Z"/>
	<path fill="#ffffff" transform="scale(0.956062 0.956062)" d="M708.168 292.131C709.195 292.053 710.224 291.982 711.254 291.982C716.528 291.983 721.445 294.066 725.034 297.952C731.003 304.415 732.21 314.348 731.717 322.782C731.071 333.811 726.489 344.947 717.952 352.213C711.146 358.007 704.367 357.646 696.014 356.9C694.512 359.136 692.061 362.061 692.002 364.858C691.977 366.035 692.172 367.05 693.105 367.828C695.771 370.048 700.409 369.282 703.652 368.973C705.79 377.952 709.655 383.42 712.382 391.581C717.234 406.102 718.894 421.13 726.525 434.801C733.799 447.833 747.573 458.736 761.998 462.795C760.986 464.038 759.967 465.275 758.929 466.496C738.55 490.48 691.652 518.028 660.633 520.387C652.181 521.03 642.263 520.445 635.651 514.453C629.691 509.052 628.749 501.645 628.451 494.084C630.745 490.911 632.844 488.154 636.233 486.035C636.708 491.557 635.594 502.298 637.987 506.932C638.725 508.362 640.083 509.311 641.62 509.608C643.118 509.203 643.954 508.987 644.753 507.502C646.41 504.425 646.149 499.922 646.078 496.519C645.682 477.694 642.267 476.336 636.892 460.159C647.276 449.47 655.545 436.696 663.762 424.335C668.323 417.641 681.244 399.482 681.967 392.019C682.075 390.9 681.895 390.774 681.223 389.958C681.006 389.955 680.789 389.937 680.573 389.95C676.721 390.174 671.98 397.8 669.423 400.705C650.539 422.157 617.81 444.307 589.072 446.417C576.706 439.445 560.828 402.665 555.169 388.959C557.495 389.351 560.032 389.604 562.395 389.481C564.421 389.375 567.44 389.053 568.883 387.516L568.646 386.548C564.241 382.843 556.111 381.565 550.671 379.803C556.846 364.955 559.402 354.854 558.425 338.768C561.668 338.563 564.901 338.2 568.133 337.873C571.353 348.45 575.394 357.703 584.758 364.252C591.884 369.236 600.867 371.127 609.409 369.508C616.607 368.144 622.931 364.155 627.002 358.005C634.338 346.921 632.63 335.939 630.073 323.719C644.343 320.861 658.18 316.359 672.37 313.165C675.755 318.822 677.686 325.16 680.866 330.899C681.85 332.675 682.648 334.411 684.672 334.982C688.466 332.726 689.047 318.788 690.031 314.364C690.802 310.895 691.9 307.441 693.54 304.279C696.824 297.941 701.473 294.315 708.168 292.131Z"/>
	<path fill="rgba(255,255,255,0)" transform="scale(0.956062 0.956062)" d="M582.557 403.682C587.164 403.36 591.968 402.991 596.507 404.071C598.828 404.623 602.045 405.491 603.39 407.578L602.718 408.229C600.352 409.07 598.078 408.702 595.625 408.507C590.48 408.155 576.558 410.032 572.921 407.446L573.098 406.593C576.207 404.464 578.909 404.13 582.557 403.682Z"/>
	<path fill="rgba(255,255,255,0)" transform="scale(0.956062 0.956062)" d="M708.618 301.029C709.995 300.952 711.596 300.925 712.95 301.246C714.122 301.525 714.774 301.848 715.442 302.868C713.594 305.837 708.086 306.871 705.666 309.997C702.95 313.505 702.786 319.021 703.242 323.25C703.838 328.772 705.343 333.989 709.795 337.571C712.221 336.478 714.76 335.033 717.492 335.392L717.976 336.222C717.589 338.077 716.435 339.412 715.341 340.916C712.879 343.421 706.752 349.201 703.134 349.048C701.947 348.999 701.17 348.4 700.459 347.508C698.408 344.929 697.163 317.783 698.124 313.833C699.607 307.738 703.388 304.08 708.618 301.029Z"/>
	<path fill="#ffffff" transform="scale(0.956062 0.956062)" d="M467.828 381.645L469.252 381.558C470.113 382.381 470.356 382.99 470.543 384.18C471.322 389.112 471.47 394.359 471.902 399.35L474.422 429.303L480.846 504.475L502.603 755.403C499.543 755.901 496.507 755.964 493.415 756.048C485.533 745.899 476.138 737.417 467.086 728.348C454.214 715.451 441.416 702.457 428.309 689.798C422.123 683.824 415.334 676.736 407.129 673.64C397.981 670.189 376.533 674.048 366.38 674.87C356.459 675.673 346.496 676.489 336.541 676.668C336.185 667.144 336.073 655.826 331.24 647.382C327.732 646.424 324.348 645.871 320.708 645.809C311.425 645.652 302.1 647.217 292.861 648.038C282.881 648.925 272.508 649.196 262.636 650.805C259.68 651.286 256.589 652.141 254.412 654.313C248.171 660.542 245.443 680.468 239.707 689.408C237.521 692.815 234.049 695.727 231.316 698.74C228.415 701.939 225.898 705.343 223.387 708.847C208.693 729.793 193.341 750.639 180.429 772.729L170.583 773.269C169.849 761.964 168.425 750.673 167.336 739.395L161.079 673.915L138.457 438.616C150.482 435.881 163.015 434.286 175.181 432.2L246.524 419.973L467.828 381.645Z"/>
	<path fill="rgba(255,255,255,0)" transform="scale(0.956062 0.956062)" d="M395.764 455.636C397.047 455.47 398.335 455.889 399.503 456.412C400.853 457.017 401.15 457.414 401.731 458.751C401.648 459.486 401.724 460.109 401.254 460.719C400.299 461.956 398.737 462.514 397.267 462.879C392.054 464.175 386.255 464.278 380.901 465.279C374.157 466.539 367.44 468.072 360.672 469.184C341.841 472.281 322.8 474.563 303.901 477.24L243.541 485.952C230.769 487.84 218.022 490.11 205.165 491.335C203.769 491.139 202.239 490.983 200.932 490.424C199.554 489.836 198.827 488.797 198.323 487.42C198.438 486.698 198.396 486.269 198.879 485.671C200.603 483.537 203.865 482.544 206.423 481.905C211.828 480.554 217.771 480.164 223.312 479.444L249.031 475.84L351.682 461.263C366.442 459.246 381.081 458.355 395.764 455.636Z"/>
	<path fill="rgba(255,255,255,0)" transform="scale(0.956062 0.956062)" d="M352.657 523.189C353.345 523.059 354.073 523.004 354.771 522.983C356.792 522.921 358.86 523.589 360.275 525.075C361.984 526.87 362.655 529.991 363.037 532.357C364.363 540.578 364.69 549.211 365.451 557.514L369.851 604.707C370.406 610.742 372.826 625.588 372.347 630.874C372.153 633.004 371.616 635.667 369.779 636.999C369.096 637.495 368.947 637.311 368.186 637.217C366.534 635.87 365.984 633.664 365.616 631.647C364.035 622.976 363.9 612.378 363.041 603.466C360.683 578.991 358.761 554.395 355.966 529.97C342.973 530.043 330.077 532.698 317.217 534.346L249.206 542.817C245.218 543.295 241.27 543.894 237.309 544.56C237.271 556.462 238.527 568.187 239.635 580.022L242.695 613.695C243.464 621.732 245.725 630.933 244.766 638.891C244.488 641.194 244.154 641.915 242.342 643.288C241.585 643.386 241.611 643.531 241.056 643.216C239.311 642.226 238.616 639.455 238.203 637.656C236.066 628.356 235.81 611.486 234.9 601.082C233.422 584.195 230.356 564.369 230.22 547.729C230.202 545.467 230.19 542.295 231.659 540.436C233.132 538.57 235.572 537.893 237.794 537.423C249.263 534.997 261.752 534.545 273.432 533.061L352.657 523.189Z"/>
	<path fill="#ffffff" transform="scale(0.956062 0.956062)" d="M772.608 465.362C784.137 471.017 797.489 480.988 808.864 487.99C824.002 497.31 841.527 506.13 855.496 516.835C866.739 525.451 875.015 536.329 879.641 549.779C885.725 567.466 887.223 587.485 889.699 605.961C893.251 632.463 896.582 659.008 900.826 685.41C902.959 698.679 904.864 712.213 908.089 725.258C910.687 735.767 917.112 749.579 917.287 760.031C917.449 769.751 909.396 777.537 908.584 787.126C907.648 798.182 916.597 807.563 917.201 818.451C917.595 825.552 912.195 831.088 910.605 837.777C909.412 842.795 909.91 847.616 910.597 852.657C902.051 855.81 893.021 857.401 884.078 858.939C875.294 819.792 866.544 799.768 831.997 776.602C838.496 776.37 844.939 776.049 851.356 777.332C859.437 778.949 867.497 782.284 874.585 786.457C879.458 789.326 884.278 792.593 888.619 796.222C891.253 798.424 893.666 801.157 896.653 802.891C897.885 803.606 898.863 803.852 900.272 803.924C901.617 803.365 902.32 802.991 902.891 801.525C903.587 799.738 903.394 797.901 902.531 796.21C899.804 790.871 892.466 786.453 887.536 783.089C872.95 773.137 855.636 765.202 837.523 766.936C825.587 768.079 818.217 770.001 806.477 765.877C816.108 755.82 819.583 752.382 833.171 748.185C837.17 746.95 841.376 745.9 845.165 744.098C847.647 742.916 849.856 741.667 850.836 738.995C850.733 737.729 850.621 736.773 849.6 735.888C847.865 734.385 844.883 734.66 842.79 734.935C822.944 737.545 808.406 747.788 796.636 763.307C790.157 764.213 786.396 765.047 781.475 769.546C777.443 761.629 773.729 752.573 771.256 744.049C767.205 730.089 775.804 716.055 777.207 702.124C778.543 688.855 778.778 675.106 778.241 661.781C777.947 654.489 776.789 646.812 777.162 639.56C777.848 626.195 799.704 578.492 807.924 565.211C811.828 558.903 818.085 554.008 821.528 547.479C822.385 545.854 823.041 544.27 822.462 542.435C821.567 541.648 821.23 541.174 819.938 541.291C814.775 541.756 806.23 554.028 803.08 558.23C793.353 571.661 786.082 588.11 780.391 603.612C778.142 609.739 776.526 616.174 773.989 622.181C773.265 623.895 772.107 626.699 770.453 627.578C767.983 624.721 770.15 615.83 766.269 612.315C765.212 611.358 764.305 611.616 762.998 611.673C761.962 612.356 761.611 612.553 761.106 613.738C758.856 619.021 765.378 637.265 766.75 643.565C767.491 646.964 767.931 650.427 768.204 653.893C769.617 671.82 768.76 691.408 766.057 709.194C764.546 719.136 758.508 729.272 759.801 739.418C761.239 750.697 768.337 764.306 772.482 775.092C768.591 779.649 765.559 784.326 762.851 789.662C746.547 794.587 728.95 796.793 712.215 799.986L669.528 807.857C659.212 809.703 646.735 813.198 636.318 812.215C621.813 810.846 597.919 800.97 584.211 795.178C581.258 771.055 578.929 746.811 576.108 722.662C575.173 714.659 574.967 705.072 573.365 697.388C572.978 695.531 571.404 692.673 570.02 691.361C569.399 690.772 569.538 690.974 568.553 690.988C568.054 691.363 567.947 691.403 567.509 691.96C566.406 693.362 565.95 695.69 565.952 697.427C565.965 708.96 568.686 720.818 570.155 732.247C572.745 752.398 574.977 772.58 577.128 792.781L560.658 786.172C558.725 756.835 558.663 727.457 556.537 698.115C555.152 678.998 552.4 660.278 549.897 641.315C548.356 629.647 547.253 617.933 545.636 606.272C543.931 593.976 541.978 581.739 539.942 569.495C539.127 564.593 538.791 559.417 537.472 554.641C540.257 549.737 543.882 545.523 548.137 541.839C556.155 534.897 565.672 529.423 574.633 523.779C589.566 514.373 604.539 505.328 618.953 495.111C619.703 505.672 621.631 515.18 630.066 522.391C639.075 530.092 651.514 531.05 662.842 530.014C702.739 526.365 747.493 495.664 772.608 465.362Z"/>
	<path fill="rgba(255,255,255,0)" transform="scale(0.956062 0.956062)" d="M853.239 523.518C853.42 523.51 853.6 523.491 853.78 523.493C855.164 523.505 856.574 524.089 857.388 525.264C858.12 526.32 857.875 526.869 857.558 527.97C854.592 531.273 837.973 536.406 832.432 538.936C832.282 538.959 832.134 538.995 831.983 539.004C830.441 539.101 828.726 538.696 827.576 537.652C827.348 536.467 827.315 536.042 827.927 534.898C831.07 529.021 847.033 525.336 853.239 523.518Z"/>
	<path fill="rgba(255,255,255,0)" transform="scale(0.956062 0.956062)" d="M771.739 475.426C773.74 476.061 774.888 476.573 775.917 478.492C775.923 479.268 775.901 479.952 775.584 480.677C771.936 489.004 733.895 520.189 724.343 526.675C718.343 530.749 711.933 534.396 705.12 536.906C703.663 537.017 702.954 536.803 701.632 536.29C700.697 535.248 700.671 535.312 700.669 533.921C703.799 528.005 718.216 521.902 724.047 517.338C733.153 510.211 742.294 502.661 750.771 494.794C757.733 488.333 764.162 481.178 771.739 475.426Z"/>
	<path fill="rgba(255,255,255,0)" transform="scale(0.956062 0.956062)" d="M610.573 506.604C616.815 509.047 618.807 523.058 622.258 528.838C633.687 547.979 658.3 546.566 676.918 541.251C681.793 539.86 688.986 535.656 693.941 536.87C694.998 537.733 694.97 537.698 695.198 539.045C694.708 540.675 693.647 541.51 692.449 542.631C683.572 548.016 670.021 550.753 659.768 551.582C646.344 552.668 632.92 550.523 622.455 541.382C615.341 535.168 608.572 523.231 608.054 513.722C607.879 510.524 608.488 508.983 610.573 506.604Z"/>
</svg>
